<svg width="30" height="30" viewBox="0 0 30 30" fill="none" xmlns="http://www.w3.org/2000/svg">
<path d="M15 0C23.2843 0 30 6.71573 30 15C30 23.2843 23.2843 30 15 30C6.71573 30 0 23.2843 0 15C0 6.71573 6.71573 0 15 0ZM11 7.25C8.92893 7.25 7.25 8.92893 7.25 11V19C7.25 21.0711 8.92893 22.75 11 22.75H19C21.0711 22.75 22.75 21.0711 22.75 19V11C22.75 8.92893 21.0711 7.25 19 7.25H11ZM19 8.75C20.2426 8.75 21.25 9.75736 21.25 11V19C21.25 20.2426 20.2426 21.25 19 21.25H11C9.75736 21.25 8.75 20.2426 8.75 19V11C8.75 9.75736 9.75736 8.75 11 8.75H19ZM15 11.25C12.9289 11.25 11.25 12.9289 11.25 15C11.25 17.0711 12.9289 18.75 15 18.75C17.0711 18.75 18.75 17.0711 18.75 15C18.75 12.9289 17.0711 11.25 15 11.25ZM15 12.75C16.2426 12.75 17.25 13.7574 17.25 15C17.25 16.2426 16.2426 17.25 15 17.25C13.7574 17.25 12.75 16.2426 12.75 15C12.75 13.7574 13.7574 12.75 15 12.75ZM19 10C18.4477 10 18 10.4477 18 11C18 11.5523 18.4477 12 19 12C19.5523 12 20 11.5523 20 11C20 10.4477 19.5523 10 19 10Z" fill="#FFFFFF"/>
</svg>
