<svg width="30" height="30" viewBox="0 0 30 30" fill="none" xmlns="http://www.w3.org/2000/svg">
<path d="M15.003 30C11.5417 30.0022 8.18619 28.8064 5.50595 26.6155C2.82572 24.4245 0.985845 21.3734 0.29856 17.9799C-0.388724 14.5864 0.118916 11.0596 1.73534 7.99786C3.35176 4.93615 5.97738 2.52821 9.16664 1.18265C12.8305 -0.365754 16.9593 -0.394786 20.6446 1.10194C24.3299 2.59866 27.2698 5.49854 28.8177 9.16363C30.3656 12.8287 30.3947 16.9588 28.8984 20.6453C27.4022 24.3318 24.5032 27.2727 20.8394 28.8211C18.993 29.6029 17.0079 30.0039 15.003 30ZM11.5046 12.8492V15.6618H13.1908V23.8208H16.5663V15.6608H18.8183L19.1181 12.8482H16.5653V11.4413C16.5653 10.7214 16.6173 10.3145 17.6878 10.3145H19.1011V7.50284H16.8482C16.3325 7.45384 15.8122 7.51486 15.3219 7.68188C14.8315 7.8489 14.3821 8.11811 14.0035 8.47172C13.4012 9.23234 13.1101 10.1933 13.1888 11.1604V12.8492H11.5046Z" fill="#FFFFFF"/>
</svg>
