<svg width="652" height="250" viewBox="0 0 652 250" fill="none" xmlns="http://www.w3.org/2000/svg">
<g clip-path="url(#clip0_1304_694)">
<path d="M77.9146 186.534C102.794 175.618 140.578 116.03 148.183 99.6242C143.721 99.6242 123.344 100.317 123.344 119.309C120.001 119.309 116.685 115.404 116.925 110.739C116.925 103.183 124.663 95.4126 150.74 95.4126C161.728 77.447 178.882 53.6571 190.469 45.6472C195.33 42.2886 195.437 42.9817 192.574 46.4735C188.884 51.5513 183.53 59.348 177.737 69.1305C168.414 84.4306 158.505 105.248 146.372 126.053C134.532 144.938 121.559 160.292 108.028 171.86C95.5883 182.002 83.0423 188.306 75.4241 189.999C72.0545 190.679 72.5473 188.32 77.9146 186.547" fill="#333333"/>
<path d="M264.268 40.7293C249.298 40.7293 234.115 32.0663 225.018 28.068C234.94 19.5783 248.379 13.2344 261.484 13.1944C292.729 13.1944 294.035 40.7293 264.268 40.7293ZM262.11 9.94243C246.714 10.0954 231.852 15.6089 220.077 25.5358C204.827 18.9786 174.275 0 141.351 0C101.942 0 76.9166 25.1226 76.9166 51.7779C76.9166 73.7952 95.6957 88.4956 116.619 88.4956C147.598 88.4956 152.193 66.305 152.086 63.5862C152.086 62.1068 151.5 59.1214 150.222 58.0952C149.502 57.6021 148.437 57.6687 148.464 58.5084C148.464 66.9981 132.375 84.1374 112.504 84.2441C66.8878 84.4573 85.547 3.82503 135.864 3.82503C163.473 3.82503 192.588 22.2039 213.658 31.4932C200.339 46.007 185.968 65.532 165.245 106.808C136.983 163.264 99.7978 197.996 58.5104 197.996C35.6825 197.996 12.4817 183.228 12.4817 147.35C12.4817 86.5497 93.1119 69.8635 93.1119 132.197C93.1119 157.759 75.4649 171.154 60.8145 171.3C44.2064 171.3 40.6104 161.051 40.637 151.202C40.637 130.851 50.7058 126.773 45.7646 126.773C27.6382 126.773 23.4029 174.752 63.0787 174.752C88.4637 174.752 103.86 152.322 104.126 130.478C104.379 109.713 91.0076 89.4818 59.5892 89.4818C20.4329 89.4285 0.015625 117.923 0.015625 146.151C0.0822175 173.886 19.9934 201.354 61.4938 201.354C94.79 201.354 116.259 187.173 134.839 169.834C155.283 150.776 167.935 125.72 178.603 101.303C182.426 101.956 189.871 103.023 192.641 102.236C190.643 105.328 185.196 116.044 188.006 115.644C189.991 115.351 192.215 108.78 199.14 101.383C202.377 98.2373 206.189 95.7441 210.368 94.0399C218.878 90.3481 216.215 84.1241 211.7 84.1241C202.936 84.1241 198.954 97.9315 188.912 97.9315C186.067 97.8551 183.238 97.4889 180.468 96.8387C187.061 80.8455 203.549 47.5264 218.439 34.0655C224.978 36.8643 246.408 47.3931 262.163 47.3931C299.322 47.3931 304.33 9.84913 262.084 9.84913" fill="#333333"/>
<path d="M287.292 104.902C287.292 103.463 286.866 102.056 286.067 100.859C285.268 99.6624 284.132 98.7297 282.803 98.1789C281.475 97.6282 280.012 97.4841 278.602 97.7648C277.191 98.0456 275.896 98.7387 274.879 99.7564C273.862 100.774 273.169 102.071 272.888 103.482C272.608 104.894 272.752 106.357 273.302 107.687C273.853 109.016 274.785 110.153 275.98 110.952C277.176 111.752 278.582 112.179 280.021 112.179C280.976 112.181 281.922 111.994 282.805 111.628C283.688 111.263 284.491 110.727 285.166 110.051C285.842 109.375 286.378 108.572 286.742 107.689C287.107 106.805 287.294 105.858 287.292 104.902ZM471.274 153.495C462.87 166.009 451.922 174.219 447.514 171.207C443.105 168.195 446.901 155.067 455.305 142.579C463.709 130.091 474.47 121.668 478.879 124.693C483.287 127.719 479.678 141.02 471.274 153.508M184.5 170.834C168.278 170.834 197.939 125.44 211.537 125.44C228.558 125.44 199.377 170.834 184.5 170.834ZM651.979 101.53H619.189L631.056 83.6976C631.762 82.6314 632.095 81.6852 630.19 81.6852C620.388 81.6852 608.668 101.583 608.668 101.583L478.333 101.917L484.406 107.887C484.406 107.887 592.792 105.502 606.004 105.328C601.729 111.779 596.082 119.842 591.46 126.439C578.528 145.018 567.38 159.105 555.394 167.209C546.004 173.553 542.195 171.087 546.617 162.371C551.158 153.441 562.452 140.873 562.452 131.064C562.452 126.719 561.014 121.282 553.542 121.282C541.755 121.282 529.902 133.89 528.157 135.382L537.4 121.575H523.789C522.936 122.908 522.004 124.347 521.005 125.786C514.759 134.822 495.141 149.883 488.735 131.117C487.136 125.28 482.968 119.709 475.949 119.709C463.549 119.709 453.947 126.586 445.889 137.035C445.29 137.795 422.821 170.674 410.369 170.674C405.254 170.674 409.543 164.317 411.967 160.372C420.77 146.098 427.137 137.528 427.07 130.144C427.07 124.587 424.153 121.282 417.121 121.282C405.454 121.282 395.665 132.317 393.827 134.716C393.747 134.809 393.707 134.716 393.747 134.716C393.787 134.716 399.82 121.282 386.102 121.282C380.575 121.282 371.931 124.04 361.277 134.609L370.267 121.561H356.402L350.995 129.771C347.279 135.222 340.779 136.435 337.743 137.088C343.723 133.01 344.855 120.429 332.882 120.429C327.155 120.429 316.673 126.066 306.644 135.809L306.538 135.662L316.114 121.535H302.662C302.662 121.535 299.772 125.866 295.523 132.37C284.482 149.283 262.76 171.02 253.304 171.02C248.616 171.02 247.976 164.357 255.008 154.467C263.945 140.82 276.744 121.508 276.744 121.508H263.173C263.173 121.508 257.419 129.918 250.773 140.02C241.796 153.708 230.649 171.047 219.315 171.047C212.443 171.047 215.706 160.465 220.647 152.881C227.652 142.126 241.33 121.641 241.33 121.641H227.759C227.759 121.641 223.284 128.305 221.1 131.637C221.1 124.56 216.944 121.228 208.54 121.228C176.576 121.228 156.278 174.765 183.794 174.765C195.968 174.899 205.943 161.438 207.528 158.652C207.688 158.652 207.754 158.492 207.848 158.652C207.115 165.876 210.511 174.645 219.395 174.645C230.929 174.645 243.235 157.093 243.235 157.093C241.717 165.09 244.287 174.725 253.13 174.725C263.492 174.725 280.314 155.814 281.272 154.934C281.366 154.934 281.366 154.841 281.272 154.934C274.24 165.489 268.127 174.392 268.127 174.392H281.592C281.592 174.392 284.496 169.994 288.757 163.597C304.993 139.327 321.588 123.614 333.508 123.147C331.137 123.721 326.196 126.773 326.196 132.477C326.196 138.181 329.872 139.967 333.841 139.98C338.742 139.98 344.642 137.581 346.067 136.995L321.268 174.312H334.813C334.813 174.312 344.202 160.185 348.824 153.295C360.944 136.982 375.594 124.04 384.065 124.04C389.538 124.04 384.704 130.971 382.733 133.89C380.562 137.181 355.909 174.312 355.909 174.312H369.601C376.899 163.57 376.699 163.45 380.136 158.319C388.26 146.124 392.122 139.407 402.364 130.611C407.372 126.613 411.82 124.254 415.616 124.254C417.414 124.254 417.88 125.933 417.88 127.026C417.88 134.596 397.703 152.135 397.703 163.504C397.703 170.647 402.697 174.606 408.104 174.606C418.04 174.606 428.322 165.103 438.59 151.948C435.034 162.477 438.457 176.112 451.976 176.112C467.785 176.112 487.429 152.948 488.668 138.794C494.795 146.271 507.38 142.339 513.4 137.075L488.668 174.392H502.226C502.226 174.392 510.937 161.331 520.033 149.136C525.855 140.851 533.238 133.784 541.769 128.332C545.431 126.026 548.428 124.334 550.413 124.334C562.599 124.334 532.233 149.19 532.233 165.116C532.233 170.647 536.228 175.032 543.314 175.032C557.085 175.032 570.444 157.519 573.946 153.708C574.04 153.708 574.013 153.628 573.946 153.708C562.812 169.368 549.214 191.265 575.465 191.265C578.488 191.265 583.149 190.505 585.334 188.226C589.236 184.228 583.855 185.241 582.004 185.241C570.896 185.241 570.35 178.231 576.836 166.716C580.699 159.772 592.685 140.58 594.017 138.421C604.672 122.148 616.765 104.929 616.765 104.929L651.939 103.822L651.979 101.53Z" fill="#333333"/>
<path d="M73.1619 249.32L69.6858 239.205H56.8734L53.8101 249.32H50.1875L61.3884 214.668H66.3695L77.6236 249.32H73.1619ZM63.466 219.32L58.1386 235.926H68.7934L63.466 219.32Z" fill="#333333"/>
<path d="M117.542 249.32V219.107L106.328 249.32H103.372L92.0642 219.107V249.32H88.375V214.668H94.8078L105.236 242.363L115.465 214.695H121.791V249.347L117.542 249.32Z" fill="#333333"/>
<path d="M135.867 214.695H149.572C151.85 214.534 154.12 215.098 156.058 216.308C157.203 217.042 158.141 218.057 158.784 219.256C159.427 220.454 159.754 221.798 159.734 223.158C159.739 224.249 159.526 225.329 159.107 226.336C158.688 227.344 158.073 228.257 157.297 229.022C156.231 229.93 154.974 230.586 153.621 230.941C155.27 231.263 156.796 232.038 158.029 233.181C158.912 234.023 159.612 235.04 160.084 236.166C160.556 237.292 160.791 238.503 160.773 239.724C160.818 241.324 160.439 242.906 159.674 244.311C158.909 245.716 157.785 246.892 156.418 247.721C154.315 248.891 151.92 249.433 149.519 249.28H135.867V214.695ZM147.601 229.542C150.451 229.542 152.062 229.182 153.301 228.209C153.982 227.649 154.527 226.942 154.896 226.141C155.265 225.34 155.448 224.466 155.432 223.585C155.432 220.159 152.995 218.254 148.693 218.254H140.076V229.569L147.601 229.542ZM149.359 245.535C153.767 245.535 156.418 243.296 156.418 239.511C156.424 237.763 155.778 236.076 154.606 234.78C153.274 233.447 151.65 232.807 148.746 232.807H140.076V245.535H149.359Z" fill="#333333"/>
<path d="M191.378 249.32L187.902 239.205H175.09L172.027 249.32H168.391L179.605 214.668H184.586L195.84 249.32H191.378ZM181.682 219.32L176.355 235.926H187.01L181.682 219.32Z" fill="#333333"/>
<path d="M206.697 239.311C208.308 244.096 211.625 246.375 216.912 246.375C222.2 246.375 225.223 243.989 225.223 240.044C225.223 237.379 223.292 235.42 219.895 234.593L212.997 232.834C210.893 232.469 208.925 231.549 207.296 230.168C206.389 229.316 205.67 228.282 205.186 227.135C204.702 225.987 204.463 224.75 204.486 223.505C204.486 217.854 209.161 214.055 216.166 214.055C222.333 214.055 226.595 216.961 228.513 222.572L224.624 223.665C224.352 222.2 223.58 220.876 222.439 219.92C220.645 218.393 218.361 217.565 216.007 217.587C211.811 217.587 208.695 219.973 208.695 223.251C208.695 225.997 210.306 227.503 214.342 228.489L220.775 230.049C226.701 231.381 229.698 234.673 229.698 239.604C229.698 245.935 224.677 250.04 216.886 250.04C213.198 250.263 209.57 249.034 206.777 246.615C204.905 244.835 203.528 242.598 202.781 240.124L206.697 239.311Z" fill="#333333"/>
<path d="M242.491 239.311C244.103 244.096 247.419 246.375 252.72 246.375C258.021 246.375 261.017 243.989 261.017 240.044C261.017 237.379 259.1 235.42 255.69 234.593L248.778 232.834C246.674 232.469 244.706 231.549 243.077 230.168C242.174 229.313 241.459 228.279 240.977 227.131C240.496 225.984 240.259 224.749 240.281 223.505C240.281 217.854 244.942 214.055 251.948 214.055C258.127 214.055 262.376 216.961 264.294 222.572L260.405 223.665C260.134 222.2 259.361 220.876 258.221 219.92C256.428 218.391 254.143 217.563 251.788 217.587C247.592 217.587 244.476 219.973 244.476 223.251C244.476 225.997 246.087 227.503 250.136 228.489L256.569 230.049C262.483 231.381 265.492 234.673 265.492 239.604C265.492 245.935 260.458 250.04 252.68 250.04C248.989 250.262 245.357 249.033 242.558 246.615C240.695 244.828 239.319 242.593 238.562 240.124L242.491 239.311Z" fill="#333333"/>
<path d="M296.048 249.32L292.572 239.205H279.706L276.643 249.32H273.047L284.261 214.668H289.242L300.496 249.32H296.048ZM286.365 219.32L281.038 235.926H291.693L286.365 219.32Z" fill="#333333"/>
<path d="M311.258 214.695H322.818C324.699 214.596 326.58 214.881 328.347 215.532C330.115 216.182 331.732 217.185 333.1 218.48C334.829 220.231 336.185 222.315 337.085 224.606C337.985 226.897 338.41 229.347 338.334 231.808C338.334 241.83 332.368 249.254 324.283 249.254H311.258V214.695ZM322.618 245.642C324.009 245.7 325.398 245.477 326.7 244.984C328.003 244.492 329.192 243.741 330.197 242.776C332.735 239.724 334.062 235.843 333.926 231.874C334.055 228.036 332.759 224.286 330.29 221.346C329.302 220.307 328.098 219.499 326.763 218.978C325.428 218.458 323.995 218.238 322.565 218.333H315.56V245.642H322.618Z" fill="#333333"/>
<path d="M376.529 231.981C376.62 236.934 374.986 241.764 371.907 245.642C370.747 247.061 369.273 248.191 367.602 248.942C365.931 249.694 364.108 250.047 362.278 249.973C360.4 250.04 358.533 249.671 356.821 248.897C355.109 248.123 353.599 246.963 352.409 245.509C349.499 241.643 347.999 236.898 348.16 232.061C348.16 221.399 353.967 213.989 362.371 213.989C370.775 213.989 376.529 221.186 376.529 231.981ZM352.662 232.141C352.662 240.751 356.498 246.468 362.358 246.468C368.218 246.468 372.014 240.711 372.014 231.928C372.014 222.945 368.378 217.547 362.318 217.547C356.258 217.547 352.662 223.318 352.662 232.141Z" fill="#333333"/>
<path d="M408.8 249.32L402.42 234.313H392.511V249.32H388.516V214.668H402.114C408.6 214.668 413.062 218.667 413.062 224.371C413.042 226.713 412.198 228.974 410.678 230.755C409.613 231.956 408.226 232.826 406.682 233.261L413.474 249.254L408.8 249.32ZM401.541 230.782C402.515 230.866 403.495 230.738 404.415 230.406C405.335 230.075 406.172 229.548 406.869 228.862C408.03 227.632 408.666 225.997 408.64 224.304C408.64 220.719 406.096 218.48 401.981 218.48H392.511V230.782H401.541Z" fill="#333333"/>
<path d="M444.257 239.311C445.869 244.096 449.185 246.375 454.472 246.375C459.76 246.375 462.783 243.989 462.783 240.044C462.783 237.379 460.852 235.42 457.456 234.593L450.557 232.834C448.453 232.469 446.485 231.549 444.856 230.168C443.949 229.316 443.23 228.282 442.746 227.135C442.262 225.987 442.023 224.75 442.046 223.505C442.046 217.854 446.721 214.055 453.727 214.055C459.893 214.055 464.155 216.961 466.073 222.572L462.184 223.665C461.913 222.2 461.14 220.876 460 219.92C458.205 218.393 455.922 217.565 453.567 217.587C449.358 217.587 446.255 219.973 446.255 223.251C446.255 225.997 447.866 227.503 451.902 228.489L458.335 230.049C464.248 231.381 467.258 234.673 467.258 239.604C467.258 245.935 462.237 250.04 454.446 250.04C450.755 250.261 447.123 249.032 444.324 246.615C442.456 244.831 441.079 242.596 440.328 240.124L444.257 239.311Z" fill="#333333"/>
<path d="M501.487 249.32H479.125V214.668H501.021V218.453H483.48V229.515H497.438V233.047H483.48V245.509H501.54L501.487 249.32Z" fill="#333333"/>
<path d="M537.389 231.981C537.477 236.935 535.838 241.765 532.754 245.642C531.593 247.069 530.116 248.205 528.44 248.962C526.764 249.718 524.935 250.074 523.098 250C521.223 250.066 519.357 249.698 517.648 248.923C515.938 248.149 514.43 246.989 513.243 245.535C510.323 241.674 508.818 236.927 508.981 232.088C508.981 221.426 514.801 214.015 523.205 214.015C531.609 214.015 537.389 221.186 537.389 231.981ZM513.522 232.141C513.522 240.751 517.371 246.468 523.231 246.468C529.092 246.468 532.874 240.711 532.874 231.928C532.874 222.945 529.251 217.547 523.178 217.547C517.318 217.547 513.522 223.318 513.522 232.141Z" fill="#333333"/>
<path d="M572.634 214.695V237.352C572.634 241.35 571.955 243.749 570.303 245.922C568.279 248.587 564.976 250.027 560.594 250.027C556.026 250.027 552.816 248.694 550.898 245.922C549.446 243.789 548.82 241.297 548.82 237.352V214.695H553.122V237.352C553.122 240.577 553.535 242.39 554.454 243.696C555.282 244.556 556.285 245.228 557.395 245.667C558.504 246.106 559.695 246.302 560.887 246.242C562.071 246.301 563.253 246.105 564.354 245.665C565.455 245.226 566.448 244.554 567.266 243.696C568.518 242.243 568.985 240.417 568.985 237.352V214.695H572.634Z" fill="#333333"/>
<path d="M606.617 249.32H586.227V214.668H590.635V245.509H606.617V249.32Z" fill="#333333"/>
</g>
<defs>
<clipPath id="clip0_1304_694">
<rect width="652" height="250" fill="white"/>
</clipPath>
</defs>
</svg>
